solid model
facet normal 0 0 1
outer loop 
vertex 0.0627905 0.998027 1
vertex 0 1 1
vertex 0 0 1
endloop
endfacet
facet normal 0 0 1
outer loop 
vertex 0 0 1
vertex 0 0 1
vertex 0.0627905 0.998027 1
endloop
endfacet
facet normal 0.0222162 0.706932 -0.706932
outer loop 
vertex 0 1 1
vertex 0.0627905 0.998027 1
vertex 0 0 0
endloop
endfacet
facet normal 0.0222162 0.706932 -0.706932
outer loop 
vertex 0 0 0
vertex 0 0 0
vertex 0 1 1
endloop
endfacet
facet normal 0 0 1
outer loop 
vertex 0.125333 0.992115 1
vertex 0.0627905 0.998027 1
vertex 0 0 1
endloop
endfacet
facet normal 0 0 1
outer loop 
vertex 0 0 1
vertex 0 0 1
vertex 0.125333 0.992115 1
endloop
endfacet
facet normal 0.0665608 0.704142 -0.706932
outer loop 
vertex 0.0627905 0.998027 1
vertex 0.125333 0.992115 1
vertex 0 0 0
endloop
endfacet
facet normal 0.0665608 0.704142 -0.706932
outer loop 
vertex 0 0 0
vertex 0 0 0
vertex 0.0627905 0.998027 1
endloop
endfacet
facet normal 0 0 1
outer loop 
vertex 0.187381 0.982287 1
vertex 0.125333 0.992115 1
vertex 0 0 1
endloop
endfacet
facet normal 0 0 1
outer loop 
vertex 0 0 1
vertex 0 0 1
vertex 0.187381 0.982287 1
endloop
endfacet
facet normal 0.110644 0.698573 -0.706932
outer loop 
vertex 0.125333 0.992115 1
vertex 0.187381 0.982287 1
vertex 0 0 0
endloop
endfacet
facet normal 0.110644 0.698573 -0.706932
outer loop 
vertex 0 0 0
vertex 0 0 0
vertex 0.125333 0.992115 1
endloop
endfacet
facet normal 0 0 1
outer loop 
vertex 0.24869 0.968583 1
vertex 0.187381 0.982287 1
vertex 0 0 1
endloop
endfacet
facet normal 0 0 1
outer loop 
vertex 0 0 1
vertex 0 0 1
vertex 0.24869 0.968583 1
endloop
endfacet
facet normal 0.154288 0.690248 -0.706932
outer loop 
vertex 0.187381 0.982287 1
vertex 0.24869 0.968583 1
vertex 0 0 0
endloop
endfacet
facet normal 0.154288 0.690248 -0.706932
outer loop 
vertex 0 0 0
vertex 0 0 0
vertex 0.187381 0.982287 1
endloop
endfacet
facet normal 0 0 1
outer loop 
vertex 0.309017 0.951057 1
vertex 0.24869 0.968583 1
vertex 0 0 1
endloop
endfacet
facet normal 0 0 1
outer loop 
vertex 0 0 1
vertex 0 0 1
vertex 0.309017 0.951057 1
endloop
endfacet
facet normal 0.197325 0.679198 -0.706932
outer loop 
vertex 0.24869 0.968583 1
vertex 0.309017 0.951057 1
vertex 0 0 0
endloop
endfacet
facet normal 0.197325 0.679198 -0.706932
outer loop 
vertex 0 0 0
vertex 0 0 0
vertex 0.24869 0.968583 1
endloop
endfacet
facet normal 0 0 1
outer loop 
vertex 0.368125 0.929776 1
vertex 0.309017 0.951057 1
vertex 0 0 1
endloop
endfacet
facet normal 0 0 1
outer loop 
vertex 0 0 1
vertex 0 0 1
vertex 0.368125 0.929776 1
endloop
endfacet
facet normal 0.239583 0.665467 -0.706932
outer loop 
vertex 0.309017 0.951057 1
vertex 0.368125 0.929776 1
vertex 0 0 0
endloop
endfacet
facet normal 0.239583 0.665467 -0.706932
outer loop 
vertex 0 0 0
vertex 0 0 0
vertex 0.309017 0.951057 1
endloop
endfacet
facet normal 0 0 1
outer loop 
vertex 0.425779 0.904827 1
vertex 0.368125 0.929776 1
vertex 0 0 1
endloop
endfacet
facet normal 0 0 1
outer loop 
vertex 0 0 1
vertex 0 0 1
vertex 0.425779 0.904827 1
endloop
endfacet
facet normal 0.280895 0.649111 -0.706932
outer loop 
vertex 0.368125 0.929776 1
vertex 0.425779 0.904827 1
vertex 0 0 0
endloop
endfacet
facet normal 0.280895 0.649111 -0.706932
outer loop 
vertex 0 0 0
vertex 0 0 0
vertex 0.368125 0.929776 1
endloop
endfacet
facet normal 0 0 1
outer loop 
vertex 0.481754 0.876307 1
vertex 0.425779 0.904827 1
vertex 0 0 1
endloop
endfacet
facet normal 0 0 1
outer loop 
vertex 0 0 1
vertex 0 0 1
vertex 0.481754 0.876307 1
endloop
endfacet
facet normal 0.321099 0.630192 -0.706932
outer loop 
vertex 0.425779 0.904827 1
vertex 0.481754 0.876307 1
vertex 0 0 0
endloop
endfacet
facet normal 0.321099 0.630192 -0.706932
outer loop 
vertex 0 0 0
vertex 0 0 0
vertex 0.425779 0.904827 1
endloop
endfacet
facet normal 0 0 1
outer loop 
vertex 0.535827 0.844328 1
vertex 0.481754 0.876307 1
vertex 0 0 1
endloop
endfacet
facet normal 0 0 1
outer loop 
vertex 0 0 1
vertex 0 0 1
vertex 0.535827 0.844328 1
endloop
endfacet
facet normal 0.360035 0.608787 -0.706932
outer loop 
vertex 0.481754 0.876307 1
vertex 0.535827 0.844328 1
vertex 0 0 0
endloop
endfacet
facet normal 0.360035 0.608787 -0.706932
outer loop 
vertex 0 0 0
vertex 0 0 0
vertex 0.481754 0.876307 1
endloop
endfacet
facet normal 0 0 1
outer loop 
vertex 0.587785 0.809017 1
vertex 0.535827 0.844328 1
vertex 0 0 1
endloop
endfacet
facet normal 0 0 1
outer loop 
vertex 0 0 1
vertex 0 0 1
vertex 0.587785 0.809017 1
endloop
endfacet
facet normal 0.397551 0.584979 -0.706932
outer loop 
vertex 0.535827 0.844328 1
vertex 0.587785 0.809017 1
vertex 0 0 0
endloop
endfacet
facet normal 0.397551 0.584979 -0.706932
outer loop 
vertex 0 0 0
vertex 0 0 0
vertex 0.535827 0.844328 1
endloop
endfacet
facet normal 0 0 1
outer loop 
vertex 0.637424 0.770513 1
vertex 0.587785 0.809017 1
vertex 0 0 1
endloop
endfacet
facet normal 0 0 1
outer loop 
vertex 0 0 1
vertex 0 0 1
vertex 0.637424 0.770513 1
endloop
endfacet
facet normal 0.433498 0.558862 -0.706932
outer loop 
vertex 0.587785 0.809017 1
vertex 0.637424 0.770513 1
vertex 0 0 0
endloop
endfacet
facet normal 0.433498 0.558862 -0.706932
outer loop 
vertex 0 0 0
vertex 0 0 0
vertex 0.587785 0.809017 1
endloop
endfacet
facet normal 0 0 1
outer loop 
vertex 0.684547 0.728969 1
vertex 0.637424 0.770513 1
vertex 0 0 1
endloop
endfacet
facet normal 0 0 1
outer loop 
vertex 0 0 1
vertex 0 0 1
vertex 0.684547 0.728969 1
endloop
endfacet
facet normal 0.467733 0.53054 -0.706932
outer loop 
vertex 0.637424 0.770513 1
vertex 0.684547 0.728969 1
vertex 0 0 0
endloop
endfacet
facet normal 0.467733 0.53054 -0.706932
outer loop 
vertex 0 0 0
vertex 0 0 0
vertex 0.637424 0.770513 1
endloop
endfacet
facet normal 0 0 1
outer loop 
vertex 0.728969 0.684547 1
vertex 0.684547 0.728969 1
vertex 0 0 1
endloop
endfacet
facet normal 0 0 1
outer loop 
vertex 0 0 1
vertex 0 0 1
vertex 0.728969 0.684547 1
endloop
endfacet
facet normal 0.500123 0.500123 -0.706932
outer loop 
vertex 0.684547 0.728969 1
vertex 0.728969 0.684547 1
vertex 0 0 0
endloop
endfacet
facet normal 0.500123 0.500123 -0.706932
outer loop 
vertex 0 0 0
vertex 0 0 0
vertex 0.684547 0.728969 1
endloop
endfacet
facet normal 0 0 1
outer loop 
vertex 0.770513 0.637424 1
vertex 0.728969 0.684547 1
vertex 0 0 1
endloop
endfacet
facet normal 0 0 1
outer loop 
vertex 0 0 1
vertex 0 0 1
vertex 0.770513 0.637424 1
endloop
endfacet
facet normal 0.53054 0.467733 -0.706932
outer loop 
vertex 0.728969 0.684547 1
vertex 0.770513 0.637424 1
vertex 0 0 0
endloop
endfacet
facet normal 0.53054 0.467733 -0.706932
outer loop 
vertex 0 0 0
vertex 0 0 0
vertex 0.728969 0.684547 1
endloop
endfacet
facet normal 0 0 1
outer loop 
vertex 0.809017 0.587785 1
vertex 0.770513 0.637424 1
vertex 0 0 1
endloop
endfacet
facet normal 0 0 1
outer loop 
vertex 0 0 1
vertex 0 0 1
vertex 0.809017 0.587785 1
endloop
endfacet
facet normal 0.558862 0.433498 -0.706932
outer loop 
vertex 0.770513 0.637424 1
vertex 0.809017 0.587785 1
vertex 0 0 0
endloop
endfacet
facet normal 0.558862 0.433498 -0.706932
outer loop 
vertex 0 0 0
vertex 0 0 0
vertex 0.770513 0.637424 1
endloop
endfacet
facet normal 0 0 1
outer loop 
vertex 0.844328 0.535827 1
vertex 0.809017 0.587785 1
vertex 0 0 1
endloop
endfacet
facet normal 0 0 1
outer loop 
vertex 0 0 1
vertex 0 0 1
vertex 0.844328 0.535827 1
endloop
endfacet
facet normal 0.584979 0.397551 -0.706932
outer loop 
vertex 0.809017 0.587785 1
vertex 0.844328 0.535827 1
vertex 0 0 0
endloop
endfacet
facet normal 0.584979 0.397551 -0.706932
outer loop 
vertex 0 0 0
vertex 0 0 0
vertex 0.809017 0.587785 1
endloop
endfacet
facet normal 0 0 1
outer loop 
vertex 0.876307 0.481754 1
vertex 0.844328 0.535827 1
vertex 0 0 1
endloop
endfacet
facet normal 0 0 1
outer loop 
vertex 0 0 1
vertex 0 0 1
vertex 0.876307 0.481754 1
endloop
endfacet
facet normal 0.608787 0.360036 -0.706932
outer loop 
vertex 0.844328 0.535827 1
vertex 0.876307 0.481754 1
vertex 0 0 0
endloop
endfacet
facet normal 0.608787 0.360036 -0.706932
outer loop 
vertex 0 0 0
vertex 0 0 0
vertex 0.844328 0.535827 1
endloop
endfacet
facet normal 0 0 1
outer loop 
vertex 0.904827 0.425779 1
vertex 0.876307 0.481754 1
vertex 0 0 1
endloop
endfacet
facet normal 0 0 1
outer loop 
vertex 0 0 1
vertex 0 0 1
vertex 0.904827 0.425779 1
endloop
endfacet
facet normal 0.630192 0.321099 -0.706932
outer loop 
vertex 0.876307 0.481754 1
vertex 0.904827 0.425779 1
vertex 0 0 0
endloop
endfacet
facet normal 0.630192 0.321099 -0.706932
outer loop 
vertex 0 0 0
vertex 0 0 0
vertex 0.876307 0.481754 1
endloop
endfacet
facet normal 0 0 1
outer loop 
vertex 0.929776 0.368125 1
vertex 0.904827 0.425779 1
vertex 0 0 1
endloop
endfacet
facet normal 0 0 1
outer loop 
vertex 0 0 1
vertex 0 0 1
vertex 0.929776 0.368125 1
endloop
endfacet
facet normal 0.649111 0.280895 -0.706932
outer loop 
vertex 0.904827 0.425779 1
vertex 0.929776 0.368125 1
vertex 0 0 0
endloop
endfacet
facet normal 0.649111 0.280895 -0.706932
outer loop 
vertex 0 0 0
vertex 0 0 0
vertex 0.904827 0.425779 1
endloop
endfacet
facet normal 0 0 1
outer loop 
vertex 0.951057 0.309017 1
vertex 0.929776 0.368125 1
vertex 0 0 1
endloop
endfacet
facet normal 0 0 1
outer loop 
vertex 0 0 1
vertex 0 0 1
vertex 0.951057 0.309017 1
endloop
endfacet
facet normal 0.665467 0.239583 -0.706932
outer loop 
vertex 0.929776 0.368125 1
vertex 0.951057 0.309017 1
vertex 0 0 0
endloop
endfacet
facet normal 0.665467 0.239583 -0.706932
outer loop 
vertex 0 0 0
vertex 0 0 0
vertex 0.929776 0.368125 1
endloop
endfacet
facet normal 0 0 1
outer loop 
vertex 0.968583 0.24869 1
vertex 0.951057 0.309017 1
vertex 0 0 1
endloop
endfacet
facet normal 0 0 1
outer loop 
vertex 0 0 1
vertex 0 0 1
vertex 0.968583 0.24869 1
endloop
endfacet
facet normal 0.679198 0.197325 -0.706932
outer loop 
vertex 0.951057 0.309017 1
vertex 0.968583 0.24869 1
vertex 0 0 0
endloop
endfacet
facet normal 0.679198 0.197325 -0.706932
outer loop 
vertex 0 0 0
vertex 0 0 0
vertex 0.951057 0.309017 1
endloop
endfacet
facet normal 0 0 1
outer loop 
vertex 0.982287 0.187381 1
vertex 0.968583 0.24869 1
vertex 0 0 1
endloop
endfacet
facet normal 0 0 1
outer loop 
vertex 0 0 1
vertex 0 0 1
vertex 0.982287 0.187381 1
endloop
endfacet
facet normal 0.690248 0.154288 -0.706932
outer loop 
vertex 0.968583 0.24869 1
vertex 0.982287 0.187381 1
vertex 0 0 0
endloop
endfacet
facet normal 0.690248 0.154288 -0.706932
outer loop 
vertex 0 0 0
vertex 0 0 0
vertex 0.968583 0.24869 1
endloop
endfacet
facet normal 0 0 1
outer loop 
vertex 0.992115 0.125333 1
vertex 0.982287 0.187381 1
vertex 0 0 1
endloop
endfacet
facet normal 0 0 1
outer loop 
vertex 0 0 1
vertex 0 0 1
vertex 0.992115 0.125333 1
endloop
endfacet
facet normal 0.698573 0.110644 -0.706932
outer loop 
vertex 0.982287 0.187381 1
vertex 0.992115 0.125333 1
vertex 0 0 0
endloop
endfacet
facet normal 0.698573 0.110644 -0.706932
outer loop 
vertex 0 0 0
vertex 0 0 0
vertex 0.982287 0.187381 1
endloop
endfacet
facet normal 0 0 1
outer loop 
vertex 0.998027 0.0627905 1
vertex 0.992115 0.125333 1
vertex 0 0 1
endloop
endfacet
facet normal 0 0 1
outer loop 
vertex 0 0 1
vertex 0 0 1
vertex 0.998027 0.0627905 1
endloop
endfacet
facet normal 0.704142 0.0665608 -0.706932
outer loop 
vertex 0.992115 0.125333 1
vertex 0.998027 0.0627905 1
vertex 0 0 0
endloop
endfacet
facet normal 0.704142 0.0665608 -0.706932
outer loop 
vertex 0 0 0
vertex 0 0 0
vertex 0.992115 0.125333 1
endloop
endfacet
facet normal 0 0 1
outer loop 
vertex 1 -4.37114e-08 1
vertex 0.998027 0.0627905 1
vertex 0 0 1
endloop
endfacet
facet normal 0 0 1
outer loop 
vertex 0 0 1
vertex 0 0 1
vertex 1 -4.37114e-08 1
endloop
endfacet
facet normal 0.706932 0.0222162 -0.706932
outer loop 
vertex 0.998027 0.0627905 1
vertex 1 -4.37114e-08 1
vertex 0 0 0
endloop
endfacet
facet normal 0.706932 0.0222162 -0.706932
outer loop 
vertex 0 0 0
vertex 0 0 0
vertex 0.998027 0.0627905 1
endloop
endfacet
facet normal 0 -0 1
outer loop 
vertex 0.998027 -0.0627905 1
vertex 1 -4.37114e-08 1
vertex 0 0 1
endloop
endfacet
facet normal 0 -0 1
outer loop 
vertex 0 0 1
vertex 0 0 1
vertex 0.998027 -0.0627905 1
endloop
endfacet
facet normal 0.706932 -0.0222163 -0.706932
outer loop 
vertex 1 -4.37114e-08 1
vertex 0.998027 -0.0627905 1
vertex 0 0 0
endloop
endfacet
facet normal 0.706932 -0.0222163 -0.706932
outer loop 
vertex 0 0 0
vertex 0 0 0
vertex 1 -4.37114e-08 1
endloop
endfacet
facet normal 0 -0 1
outer loop 
vertex 0.992115 -0.125333 1
vertex 0.998027 -0.0627905 1
vertex 0 0 1
endloop
endfacet
facet normal 0 -0 1
outer loop 
vertex 0 0 1
vertex 0 0 1
vertex 0.992115 -0.125333 1
endloop
endfacet
facet normal 0.704142 -0.0665608 -0.706932
outer loop 
vertex 0.998027 -0.0627905 1
vertex 0.992115 -0.125333 1
vertex 0 0 0
endloop
endfacet
facet normal 0.704142 -0.0665608 -0.706932
outer loop 
vertex 0 0 0
vertex 0 0 0
vertex 0.998027 -0.0627905 1
endloop
endfacet
facet normal 0 -0 1
outer loop 
vertex 0.982287 -0.187381 1
vertex 0.992115 -0.125333 1
vertex 0 0 1
endloop
endfacet
facet normal 0 -0 1
outer loop 
vertex 0 0 1
vertex 0 0 1
vertex 0.982287 -0.187381 1
endloop
endfacet
facet normal 0.698573 -0.110644 -0.706932
outer loop 
vertex 0.992115 -0.125333 1
vertex 0.982287 -0.187381 1
vertex 0 0 0
endloop
endfacet
facet normal 0.698573 -0.110644 -0.706932
outer loop 
vertex 0 0 0
vertex 0 0 0
vertex 0.992115 -0.125333 1
endloop
endfacet
facet normal 0 -0 1
outer loop 
vertex 0.968583 -0.24869 1
vertex 0.982287 -0.187381 1
vertex 0 0 1
endloop
endfacet
facet normal 0 -0 1
outer loop 
vertex 0 0 1
vertex 0 0 1
vertex 0.968583 -0.24869 1
endloop
endfacet
facet normal 0.690248 -0.154288 -0.706932
outer loop 
vertex 0.982287 -0.187381 1
vertex 0.968583 -0.24869 1
vertex 0 0 0
endloop
endfacet
facet normal 0.690248 -0.154288 -0.706932
outer loop 
vertex 0 0 0
vertex 0 0 0
vertex 0.982287 -0.187381 1
endloop
endfacet
facet normal 0 -0 1
outer loop 
vertex 0.951056 -0.309017 1
vertex 0.968583 -0.24869 1
vertex 0 0 1
endloop
endfacet
facet normal 0 -0 1
outer loop 
vertex 0 0 1
vertex 0 0 1
vertex 0.951056 -0.309017 1
endloop
endfacet
facet normal 0.679198 -0.197326 -0.706932
outer loop 
vertex 0.968583 -0.24869 1
vertex 0.951056 -0.309017 1
vertex 0 0 0
endloop
endfacet
facet normal 0.679198 -0.197326 -0.706932
outer loop 
vertex 0 0 0
vertex 0 0 0
vertex 0.968583 -0.24869 1
endloop
endfacet
facet normal 0 -0 1
outer loop 
vertex 0.929776 -0.368125 1
vertex 0.951056 -0.309017 1
vertex 0 0 1
endloop
endfacet
facet normal 0 -0 1
outer loop 
vertex 0 0 1
vertex 0 0 1
vertex 0.929776 -0.368125 1
endloop
endfacet
facet normal 0.665467 -0.239583 -0.706932
outer loop 
vertex 0.951056 -0.309017 1
vertex 0.929776 -0.368125 1
vertex 0 0 0
endloop
endfacet
facet normal 0.665467 -0.239583 -0.706932
outer loop 
vertex 0 0 0
vertex 0 0 0
vertex 0.951056 -0.309017 1
endloop
endfacet
facet normal 0 -0 1
outer loop 
vertex 0.904827 -0.425779 1
vertex 0.929776 -0.368125 1
vertex 0 0 1
endloop
endfacet
facet normal 0 -0 1
outer loop 
vertex 0 0 1
vertex 0 0 1
vertex 0.904827 -0.425779 1
endloop
endfacet
facet normal 0.649111 -0.280895 -0.706932
outer loop 
vertex 0.929776 -0.368125 1
vertex 0.904827 -0.425779 1
vertex 0 0 0
endloop
endfacet
facet normal 0.649111 -0.280895 -0.706932
outer loop 
vertex 0 0 0
vertex 0 0 0
vertex 0.929776 -0.368125 1
endloop
endfacet
facet normal 0 -0 1
outer loop 
vertex 0.876307 -0.481754 1
vertex 0.904827 -0.425779 1
vertex 0 0 1
endloop
endfacet
facet normal 0 -0 1
outer loop 
vertex 0 0 1
vertex 0 0 1
vertex 0.876307 -0.481754 1
endloop
endfacet
facet normal 0.630192 -0.321099 -0.706932
outer loop 
vertex 0.904827 -0.425779 1
vertex 0.876307 -0.481754 1
vertex 0 0 0
endloop
endfacet
facet normal 0.630192 -0.321099 -0.706932
outer loop 
vertex 0 0 0
vertex 0 0 0
vertex 0.904827 -0.425779 1
endloop
endfacet
facet normal 0 -0 1
outer loop 
vertex 0.844328 -0.535827 1
vertex 0.876307 -0.481754 1
vertex 0 0 1
endloop
endfacet
facet normal 0 -0 1
outer loop 
vertex 0 0 1
vertex 0 0 1
vertex 0.844328 -0.535827 1
endloop
endfacet
facet normal 0.608787 -0.360035 -0.706932
outer loop 
vertex 0.876307 -0.481754 1
vertex 0.844328 -0.535827 1
vertex 0 0 0
endloop
endfacet
facet normal 0.608787 -0.360035 -0.706932
outer loop 
vertex 0 0 0
vertex 0 0 0
vertex 0.876307 -0.481754 1
endloop
endfacet
facet normal 0 -0 1
outer loop 
vertex 0.809017 -0.587785 1
vertex 0.844328 -0.535827 1
vertex 0 0 1
endloop
endfacet
facet normal 0 -0 1
outer loop 
vertex 0 0 1
vertex 0 0 1
vertex 0.809017 -0.587785 1
endloop
endfacet
facet normal 0.584978 -0.397552 -0.706932
outer loop 
vertex 0.844328 -0.535827 1
vertex 0.809017 -0.587785 1
vertex 0 0 0
endloop
endfacet
facet normal 0.584978 -0.397552 -0.706932
outer loop 
vertex 0 0 0
vertex 0 0 0
vertex 0.844328 -0.535827 1
endloop
endfacet
facet normal 0 -0 1
outer loop 
vertex 0.770513 -0.637424 1
vertex 0.809017 -0.587785 1
vertex 0 0 1
endloop
endfacet
facet normal 0 -0 1
outer loop 
vertex 0 0 1
vertex 0 0 1
vertex 0.770513 -0.637424 1
endloop
endfacet
facet normal 0.558862 -0.433497 -0.706932
outer loop 
vertex 0.809017 -0.587785 1
vertex 0.770513 -0.637424 1
vertex 0 0 0
endloop
endfacet
facet normal 0.558862 -0.433497 -0.706932
outer loop 
vertex 0 0 0
vertex 0 0 0
vertex 0.809017 -0.587785 1
endloop
endfacet
facet normal 0 -0 1
outer loop 
vertex 0.728969 -0.684547 1
vertex 0.770513 -0.637424 1
vertex 0 0 1
endloop
endfacet
facet normal 0 -0 1
outer loop 
vertex 0 0 1
vertex 0 0 1
vertex 0.728969 -0.684547 1
endloop
endfacet
facet normal 0.53054 -0.467733 -0.706932
outer loop 
vertex 0.770513 -0.637424 1
vertex 0.728969 -0.684547 1
vertex 0 0 0
endloop
endfacet
facet normal 0.53054 -0.467733 -0.706932
outer loop 
vertex 0 0 0
vertex 0 0 0
vertex 0.770513 -0.637424 1
endloop
endfacet
facet normal 0 -0 1
outer loop 
vertex 0.684547 -0.728969 1
vertex 0.728969 -0.684547 1
vertex 0 0 1
endloop
endfacet
facet normal 0 -0 1
outer loop 
vertex 0 0 1
vertex 0 0 1
vertex 0.684547 -0.728969 1
endloop
endfacet
facet normal 0.500123 -0.500124 -0.706932
outer loop 
vertex 0.728969 -0.684547 1
vertex 0.684547 -0.728969 1
vertex 0 0 0
endloop
endfacet
facet normal 0.500123 -0.500124 -0.706932
outer loop 
vertex 0 0 0
vertex 0 0 0
vertex 0.728969 -0.684547 1
endloop
endfacet
facet normal 0 -0 1
outer loop 
vertex 0.637424 -0.770513 1
vertex 0.684547 -0.728969 1
vertex 0 0 1
endloop
endfacet
facet normal 0 -0 1
outer loop 
vertex 0 0 1
vertex 0 0 1
vertex 0.637424 -0.770513 1
endloop
endfacet
facet normal 0.467734 -0.530539 -0.706932
outer loop 
vertex 0.684547 -0.728969 1
vertex 0.637424 -0.770513 1
vertex 0 0 0
endloop
endfacet
facet normal 0.467734 -0.530539 -0.706932
outer loop 
vertex 0 0 0
vertex 0 0 0
vertex 0.684547 -0.728969 1
endloop
endfacet
facet normal 0 -0 1
outer loop 
vertex 0.587785 -0.809017 1
vertex 0.637424 -0.770513 1
vertex 0 0 1
endloop
endfacet
facet normal 0 -0 1
outer loop 
vertex 0 0 1
vertex 0 0 1
vertex 0.587785 -0.809017 1
endloop
endfacet
facet normal 0.433498 -0.558862 -0.706932
outer loop 
vertex 0.637424 -0.770513 1
vertex 0.587785 -0.809017 1
vertex 0 0 0
endloop
endfacet
facet normal 0.433498 -0.558862 -0.706932
outer loop 
vertex 0 0 0
vertex 0 0 0
vertex 0.637424 -0.770513 1
endloop
endfacet
facet normal 0 -0 1
outer loop 
vertex 0.535827 -0.844328 1
vertex 0.587785 -0.809017 1
vertex 0 0 1
endloop
endfacet
facet normal 0 -0 1
outer loop 
vertex 0 0 1
vertex 0 0 1
vertex 0.535827 -0.844328 1
endloop
endfacet
facet normal 0.397551 -0.584979 -0.706932
outer loop 
vertex 0.587785 -0.809017 1
vertex 0.535827 -0.844328 1
vertex 0 0 0
endloop
endfacet
facet normal 0.397551 -0.584979 -0.706932
outer loop 
vertex 0 0 0
vertex 0 0 0
vertex 0.587785 -0.809017 1
endloop
endfacet
facet normal 0 -0 1
outer loop 
vertex 0.481754 -0.876307 1
vertex 0.535827 -0.844328 1
vertex 0 0 1
endloop
endfacet
facet normal 0 -0 1
outer loop 
vertex 0 0 1
vertex 0 0 1
vertex 0.481754 -0.876307 1
endloop
endfacet
facet normal 0.360035 -0.608787 -0.706932
outer loop 
vertex 0.535827 -0.844328 1
vertex 0.481754 -0.876307 1
vertex 0 0 0
endloop
endfacet
facet normal 0.360035 -0.608787 -0.706932
outer loop 
vertex 0 0 0
vertex 0 0 0
vertex 0.535827 -0.844328 1
endloop
endfacet
facet normal 0 -0 1
outer loop 
vertex 0.425779 -0.904827 1
vertex 0.481754 -0.876307 1
vertex 0 0 1
endloop
endfacet
facet normal 0 -0 1
outer loop 
vertex 0 0 1
vertex 0 0 1
vertex 0.425779 -0.904827 1
endloop
endfacet
facet normal 0.321099 -0.630192 -0.706932
outer loop 
vertex 0.481754 -0.876307 1
vertex 0.425779 -0.904827 1
vertex 0 0 0
endloop
endfacet
facet normal 0.321099 -0.630192 -0.706932
outer loop 
vertex 0 0 0
vertex 0 0 0
vertex 0.481754 -0.876307 1
endloop
endfacet
facet normal 0 -0 1
outer loop 
vertex 0.368125 -0.929776 1
vertex 0.425779 -0.904827 1
vertex 0 0 1
endloop
endfacet
facet normal 0 -0 1
outer loop 
vertex 0 0 1
vertex 0 0 1
vertex 0.368125 -0.929776 1
endloop
endfacet
facet normal 0.280896 -0.64911 -0.706932
outer loop 
vertex 0.425779 -0.904827 1
vertex 0.368125 -0.929776 1
vertex 0 0 0
endloop
endfacet
facet normal 0.280896 -0.64911 -0.706932
outer loop 
vertex 0 0 0
vertex 0 0 0
vertex 0.425779 -0.904827 1
endloop
endfacet
facet normal 0 -0 1
outer loop 
vertex 0.309017 -0.951056 1
vertex 0.368125 -0.929776 1
vertex 0 0 1
endloop
endfacet
facet normal 0 -0 1
outer loop 
vertex 0 0 1
vertex 0 0 1
vertex 0.309017 -0.951056 1
endloop
endfacet
facet normal 0.239583 -0.665468 -0.706932
outer loop 
vertex 0.368125 -0.929776 1
vertex 0.309017 -0.951056 1
vertex 0 0 0
endloop
endfacet
facet normal 0.239583 -0.665468 -0.706932
outer loop 
vertex 0 0 0
vertex 0 0 0
vertex 0.368125 -0.929776 1
endloop
endfacet
facet normal 0 -0 1
outer loop 
vertex 0.24869 -0.968583 1
vertex 0.309017 -0.951056 1
vertex 0 0 1
endloop
endfacet
facet normal 0 -0 1
outer loop 
vertex 0 0 1
vertex 0 0 1
vertex 0.24869 -0.968583 1
endloop
endfacet
facet normal 0.197326 -0.679198 -0.706932
outer loop 
vertex 0.309017 -0.951056 1
vertex 0.24869 -0.968583 1
vertex 0 0 0
endloop
endfacet
facet normal 0.197326 -0.679198 -0.706932
outer loop 
vertex 0 0 0
vertex 0 0 0
vertex 0.309017 -0.951056 1
endloop
endfacet
facet normal 0 -0 1
outer loop 
vertex 0.187381 -0.982287 1
vertex 0.24869 -0.968583 1
vertex 0 0 1
endloop
endfacet
facet normal 0 -0 1
outer loop 
vertex 0 0 1
vertex 0 0 1
vertex 0.187381 -0.982287 1
endloop
endfacet
facet normal 0.154288 -0.690248 -0.706932
outer loop 
vertex 0.24869 -0.968583 1
vertex 0.187381 -0.982287 1
vertex 0 0 0
endloop
endfacet
facet normal 0.154288 -0.690248 -0.706932
outer loop 
vertex 0 0 0
vertex 0 0 0
vertex 0.24869 -0.968583 1
endloop
endfacet
facet normal 0 -0 1
outer loop 
vertex 0.125333 -0.992115 1
vertex 0.187381 -0.982287 1
vertex 0 0 1
endloop
endfacet
facet normal 0 -0 1
outer loop 
vertex 0 0 1
vertex 0 0 1
vertex 0.125333 -0.992115 1
endloop
endfacet
facet normal 0.110644 -0.698573 -0.706932
outer loop 
vertex 0.187381 -0.982287 1
vertex 0.125333 -0.992115 1
vertex 0 0 0
endloop
endfacet
facet normal 0.110644 -0.698573 -0.706932
outer loop 
vertex 0 0 0
vertex 0 0 0
vertex 0.187381 -0.982287 1
endloop
endfacet
facet normal 0 -0 1
outer loop 
vertex 0.0627905 -0.998027 1
vertex 0.125333 -0.992115 1
vertex 0 0 1
endloop
endfacet
facet normal 0 -0 1
outer loop 
vertex 0 0 1
vertex 0 0 1
vertex 0.0627905 -0.998027 1
endloop
endfacet
facet normal 0.0665608 -0.704142 -0.706932
outer loop 
vertex 0.125333 -0.992115 1
vertex 0.0627905 -0.998027 1
vertex 0 0 0
endloop
endfacet
facet normal 0.0665608 -0.704142 -0.706932
outer loop 
vertex 0 0 0
vertex 0 0 0
vertex 0.125333 -0.992115 1
endloop
endfacet
facet normal 0 0 1
outer loop 
vertex -8.74228e-08 -1 1
vertex 0.0627905 -0.998027 1
vertex 0 0 1
endloop
endfacet
facet normal 0 0 1
outer loop 
vertex 0 0 1
vertex 0 0 1
vertex -8.74228e-08 -1 1
endloop
endfacet
facet normal 0.0222162 -0.706932 -0.706932
outer loop 
vertex 0.0627905 -0.998027 1
vertex -8.74228e-08 -1 1
vertex 0 0 0
endloop
endfacet
facet normal 0.0222162 -0.706932 -0.706932
outer loop 
vertex 0 0 0
vertex 0 0 0
vertex 0.0627905 -0.998027 1
endloop
endfacet
facet normal -0 0 1
outer loop 
vertex -0.0627906 -0.998027 1
vertex -8.74228e-08 -1 1
vertex 0 0 1
endloop
endfacet
facet normal -0 0 1
outer loop 
vertex 0 0 1
vertex 0 0 1
vertex -0.0627906 -0.998027 1
endloop
endfacet
facet normal -0.0222162 -0.706932 -0.706932
outer loop 
vertex -8.74228e-08 -1 1
vertex -0.0627906 -0.998027 1
vertex 0 0 0
endloop
endfacet
facet normal -0.0222162 -0.706932 -0.706932
outer loop 
vertex 0 0 0
vertex 0 0 0
vertex -8.74228e-08 -1 1
endloop
endfacet
facet normal -0 0 1
outer loop 
vertex -0.125333 -0.992115 1
vertex -0.0627906 -0.998027 1
vertex 0 0 1
endloop
endfacet
facet normal -0 0 1
outer loop 
vertex 0 0 1
vertex 0 0 1
vertex -0.125333 -0.992115 1
endloop
endfacet
facet normal -0.066561 -0.704142 -0.706932
outer loop 
vertex -0.0627906 -0.998027 1
vertex -0.125333 -0.992115 1
vertex 0 0 0
endloop
endfacet
facet normal -0.066561 -0.704142 -0.706932
outer loop 
vertex 0 0 0
vertex 0 0 0
vertex -0.0627906 -0.998027 1
endloop
endfacet
facet normal -0 0 1
outer loop 
vertex -0.187381 -0.982287 1
vertex -0.125333 -0.992115 1
vertex 0 0 1
endloop
endfacet
facet normal -0 0 1
outer loop 
vertex 0 0 1
vertex 0 0 1
vertex -0.187381 -0.982287 1
endloop
endfacet
facet normal -0.110643 -0.698573 -0.706932
outer loop 
vertex -0.125333 -0.992115 1
vertex -0.187381 -0.982287 1
vertex 0 0 0
endloop
endfacet
facet normal -0.110643 -0.698573 -0.706932
outer loop 
vertex 0 0 0
vertex 0 0 0
vertex -0.125333 -0.992115 1
endloop
endfacet
facet normal -0 0 1
outer loop 
vertex -0.24869 -0.968583 1
vertex -0.187381 -0.982287 1
vertex 0 0 1
endloop
endfacet
facet normal -0 0 1
outer loop 
vertex 0 0 1
vertex 0 0 1
vertex -0.24869 -0.968583 1
endloop
endfacet
facet normal -0.154289 -0.690248 -0.706932
outer loop 
vertex -0.187381 -0.982287 1
vertex -0.24869 -0.968583 1
vertex 0 0 0
endloop
endfacet
facet normal -0.154289 -0.690248 -0.706932
outer loop 
vertex 0 0 0
vertex 0 0 0
vertex -0.187381 -0.982287 1
endloop
endfacet
facet normal -0 0 1
outer loop 
vertex -0.309017 -0.951057 1
vertex -0.24869 -0.968583 1
vertex 0 0 1
endloop
endfacet
facet normal -0 0 1
outer loop 
vertex 0 0 1
vertex 0 0 1
vertex -0.309017 -0.951057 1
endloop
endfacet
facet normal -0.197325 -0.679198 -0.706932
outer loop 
vertex -0.24869 -0.968583 1
vertex -0.309017 -0.951057 1
vertex 0 0 0
endloop
endfacet
facet normal -0.197325 -0.679198 -0.706932
outer loop 
vertex 0 0 0
vertex 0 0 0
vertex -0.24869 -0.968583 1
endloop
endfacet
facet normal -0 0 1
outer loop 
vertex -0.368125 -0.929776 1
vertex -0.309017 -0.951057 1
vertex 0 0 1
endloop
endfacet
facet normal -0 0 1
outer loop 
vertex 0 0 1
vertex 0 0 1
vertex -0.368125 -0.929776 1
endloop
endfacet
facet normal -0.239583 -0.665467 -0.706932
outer loop 
vertex -0.309017 -0.951057 1
vertex -0.368125 -0.929776 1
vertex 0 0 0
endloop
endfacet
facet normal -0.239583 -0.665467 -0.706932
outer loop 
vertex 0 0 0
vertex 0 0 0
vertex -0.309017 -0.951057 1
endloop
endfacet
facet normal -0 0 1
outer loop 
vertex -0.425779 -0.904827 1
vertex -0.368125 -0.929776 1
vertex 0 0 1
endloop
endfacet
facet normal -0 0 1
outer loop 
vertex 0 0 1
vertex 0 0 1
vertex -0.425779 -0.904827 1
endloop
endfacet
facet normal -0.280895 -0.649111 -0.706932
outer loop 
vertex -0.368125 -0.929776 1
vertex -0.425779 -0.904827 1
vertex 0 0 0
endloop
endfacet
facet normal -0.280895 -0.649111 -0.706932
outer loop 
vertex 0 0 0
vertex 0 0 0
vertex -0.368125 -0.929776 1
endloop
endfacet
facet normal -0 0 1
outer loop 
vertex -0.481754 -0.876307 1
vertex -0.425779 -0.904827 1
vertex 0 0 1
endloop
endfacet
facet normal -0 0 1
outer loop 
vertex 0 0 1
vertex 0 0 1
vertex -0.481754 -0.876307 1
endloop
endfacet
facet normal -0.321099 -0.630192 -0.706932
outer loop 
vertex -0.425779 -0.904827 1
vertex -0.481754 -0.876307 1
vertex 0 0 0
endloop
endfacet
facet normal -0.321099 -0.630192 -0.706932
outer loop 
vertex 0 0 0
vertex 0 0 0
vertex -0.425779 -0.904827 1
endloop
endfacet
facet normal -0 0 1
outer loop 
vertex -0.535827 -0.844328 1
vertex -0.481754 -0.876307 1
vertex 0 0 1
endloop
endfacet
facet normal -0 0 1
outer loop 
vertex 0 0 1
vertex 0 0 1
vertex -0.535827 -0.844328 1
endloop
endfacet
facet normal -0.360036 -0.608787 -0.706932
outer loop 
vertex -0.481754 -0.876307 1
vertex -0.535827 -0.844328 1
vertex 0 0 0
endloop
endfacet
facet normal -0.360036 -0.608787 -0.706932
outer loop 
vertex 0 0 0
vertex 0 0 0
vertex -0.481754 -0.876307 1
endloop
endfacet
facet normal -0 0 1
outer loop 
vertex -0.587785 -0.809017 1
vertex -0.535827 -0.844328 1
vertex 0 0 1
endloop
endfacet
facet normal -0 0 1
outer loop 
vertex 0 0 1
vertex 0 0 1
vertex -0.587785 -0.809017 1
endloop
endfacet
facet normal -0.397551 -0.584979 -0.706932
outer loop 
vertex -0.535827 -0.844328 1
vertex -0.587785 -0.809017 1
vertex 0 0 0
endloop
endfacet
facet normal -0.397551 -0.584979 -0.706932
outer loop 
vertex 0 0 0
vertex 0 0 0
vertex -0.535827 -0.844328 1
endloop
endfacet
facet normal -0 0 1
outer loop 
vertex -0.637424 -0.770513 1
vertex -0.587785 -0.809017 1
vertex 0 0 1
endloop
endfacet
facet normal -0 0 1
outer loop 
vertex 0 0 1
vertex 0 0 1
vertex -0.637424 -0.770513 1
endloop
endfacet
facet normal -0.433498 -0.558862 -0.706932
outer loop 
vertex -0.587785 -0.809017 1
vertex -0.637424 -0.770513 1
vertex 0 0 0
endloop
endfacet
facet normal -0.433498 -0.558862 -0.706932
outer loop 
vertex 0 0 0
vertex 0 0 0
vertex -0.587785 -0.809017 1
endloop
endfacet
facet normal -0 0 1
outer loop 
vertex -0.684547 -0.728969 1
vertex -0.637424 -0.770513 1
vertex 0 0 1
endloop
endfacet
facet normal -0 0 1
outer loop 
vertex 0 0 1
vertex 0 0 1
vertex -0.684547 -0.728969 1
endloop
endfacet
facet normal -0.467733 -0.53054 -0.706932
outer loop 
vertex -0.637424 -0.770513 1
vertex -0.684547 -0.728969 1
vertex 0 0 0
endloop
endfacet
facet normal -0.467733 -0.53054 -0.706932
outer loop 
vertex 0 0 0
vertex 0 0 0
vertex -0.637424 -0.770513 1
endloop
endfacet
facet normal -0 0 1
outer loop 
vertex -0.728969 -0.684547 1
vertex -0.684547 -0.728969 1
vertex 0 0 1
endloop
endfacet
facet normal -0 0 1
outer loop 
vertex 0 0 1
vertex 0 0 1
vertex -0.728969 -0.684547 1
endloop
endfacet
facet normal -0.500124 -0.500123 -0.706932
outer loop 
vertex -0.684547 -0.728969 1
vertex -0.728969 -0.684547 1
vertex 0 0 0
endloop
endfacet
facet normal -0.500124 -0.500123 -0.706932
outer loop 
vertex 0 0 0
vertex 0 0 0
vertex -0.684547 -0.728969 1
endloop
endfacet
facet normal -0 0 1
outer loop 
vertex -0.770513 -0.637424 1
vertex -0.728969 -0.684547 1
vertex 0 0 1
endloop
endfacet
facet normal -0 0 1
outer loop 
vertex 0 0 1
vertex 0 0 1
vertex -0.770513 -0.637424 1
endloop
endfacet
facet normal -0.53054 -0.467734 -0.706932
outer loop 
vertex -0.728969 -0.684547 1
vertex -0.770513 -0.637424 1
vertex 0 0 0
endloop
endfacet
facet normal -0.53054 -0.467734 -0.706932
outer loop 
vertex 0 0 0
vertex 0 0 0
vertex -0.728969 -0.684547 1
endloop
endfacet
facet normal -0 0 1
outer loop 
vertex -0.809017 -0.587785 1
vertex -0.770513 -0.637424 1
vertex 0 0 1
endloop
endfacet
facet normal -0 0 1
outer loop 
vertex 0 0 1
vertex 0 0 1
vertex -0.809017 -0.587785 1
endloop
endfacet
facet normal -0.558862 -0.433498 -0.706932
outer loop 
vertex -0.770513 -0.637424 1
vertex -0.809017 -0.587785 1
vertex 0 0 0
endloop
endfacet
facet normal -0.558862 -0.433498 -0.706932
outer loop 
vertex 0 0 0
vertex 0 0 0
vertex -0.770513 -0.637424 1
endloop
endfacet
facet normal -0 0 1
outer loop 
vertex -0.844328 -0.535827 1
vertex -0.809017 -0.587785 1
vertex 0 0 1
endloop
endfacet
facet normal -0 0 1
outer loop 
vertex 0 0 1
vertex 0 0 1
vertex -0.844328 -0.535827 1
endloop
endfacet
facet normal -0.584979 -0.397551 -0.706932
outer loop 
vertex -0.809017 -0.587785 1
vertex -0.844328 -0.535827 1
vertex 0 0 0
endloop
endfacet
facet normal -0.584979 -0.397551 -0.706932
outer loop 
vertex 0 0 0
vertex 0 0 0
vertex -0.809017 -0.587785 1
endloop
endfacet
facet normal -0 0 1
outer loop 
vertex -0.876307 -0.481754 1
vertex -0.844328 -0.535827 1
vertex 0 0 1
endloop
endfacet
facet normal -0 0 1
outer loop 
vertex 0 0 1
vertex 0 0 1
vertex -0.876307 -0.481754 1
endloop
endfacet
facet normal -0.608787 -0.360036 -0.706932
outer loop 
vertex -0.844328 -0.535827 1
vertex -0.876307 -0.481754 1
vertex 0 0 0
endloop
endfacet
facet normal -0.608787 -0.360036 -0.706932
outer loop 
vertex 0 0 0
vertex 0 0 0
vertex -0.844328 -0.535827 1
endloop
endfacet
facet normal -0 0 1
outer loop 
vertex -0.904827 -0.425779 1
vertex -0.876307 -0.481754 1
vertex 0 0 1
endloop
endfacet
facet normal -0 0 1
outer loop 
vertex 0 0 1
vertex 0 0 1
vertex -0.904827 -0.425779 1
endloop
endfacet
facet normal -0.630192 -0.321099 -0.706932
outer loop 
vertex -0.876307 -0.481754 1
vertex -0.904827 -0.425779 1
vertex 0 0 0
endloop
endfacet
facet normal -0.630192 -0.321099 -0.706932
outer loop 
vertex 0 0 0
vertex 0 0 0
vertex -0.876307 -0.481754 1
endloop
endfacet
facet normal -0 0 1
outer loop 
vertex -0.929776 -0.368125 1
vertex -0.904827 -0.425779 1
vertex 0 0 1
endloop
endfacet
facet normal -0 0 1
outer loop 
vertex 0 0 1
vertex 0 0 1
vertex -0.929776 -0.368125 1
endloop
endfacet
facet normal -0.649111 -0.280895 -0.706932
outer loop 
vertex -0.904827 -0.425779 1
vertex -0.929776 -0.368125 1
vertex 0 0 0
endloop
endfacet
facet normal -0.649111 -0.280895 -0.706932
outer loop 
vertex 0 0 0
vertex 0 0 0
vertex -0.904827 -0.425779 1
endloop
endfacet
facet normal -0 0 1
outer loop 
vertex -0.951056 -0.309017 1
vertex -0.929776 -0.368125 1
vertex 0 0 1
endloop
endfacet
facet normal -0 0 1
outer loop 
vertex 0 0 1
vertex 0 0 1
vertex -0.951056 -0.309017 1
endloop
endfacet
facet normal -0.665467 -0.239583 -0.706932
outer loop 
vertex -0.929776 -0.368125 1
vertex -0.951056 -0.309017 1
vertex 0 0 0
endloop
endfacet
facet normal -0.665467 -0.239583 -0.706932
outer loop 
vertex 0 0 0
vertex 0 0 0
vertex -0.929776 -0.368125 1
endloop
endfacet
facet normal -0 0 1
outer loop 
vertex -0.968583 -0.24869 1
vertex -0.951056 -0.309017 1
vertex 0 0 1
endloop
endfacet
facet normal -0 0 1
outer loop 
vertex 0 0 1
vertex 0 0 1
vertex -0.968583 -0.24869 1
endloop
endfacet
facet normal -0.679198 -0.197326 -0.706932
outer loop 
vertex -0.951056 -0.309017 1
vertex -0.968583 -0.24869 1
vertex 0 0 0
endloop
endfacet
facet normal -0.679198 -0.197326 -0.706932
outer loop 
vertex 0 0 0
vertex 0 0 0
vertex -0.951056 -0.309017 1
endloop
endfacet
facet normal -0 0 1
outer loop 
vertex -0.982287 -0.187381 1
vertex -0.968583 -0.24869 1
vertex 0 0 1
endloop
endfacet
facet normal -0 0 1
outer loop 
vertex 0 0 1
vertex 0 0 1
vertex -0.982287 -0.187381 1
endloop
endfacet
facet normal -0.690248 -0.154288 -0.706932
outer loop 
vertex -0.968583 -0.24869 1
vertex -0.982287 -0.187381 1
vertex 0 0 0
endloop
endfacet
facet normal -0.690248 -0.154288 -0.706932
outer loop 
vertex 0 0 0
vertex 0 0 0
vertex -0.968583 -0.24869 1
endloop
endfacet
facet normal -0 0 1
outer loop 
vertex -0.992115 -0.125333 1
vertex -0.982287 -0.187381 1
vertex 0 0 1
endloop
endfacet
facet normal -0 0 1
outer loop 
vertex 0 0 1
vertex 0 0 1
vertex -0.992115 -0.125333 1
endloop
endfacet
facet normal -0.698573 -0.110644 -0.706932
outer loop 
vertex -0.982287 -0.187381 1
vertex -0.992115 -0.125333 1
vertex 0 0 0
endloop
endfacet
facet normal -0.698573 -0.110644 -0.706932
outer loop 
vertex 0 0 0
vertex 0 0 0
vertex -0.982287 -0.187381 1
endloop
endfacet
facet normal -0 0 1
outer loop 
vertex -0.998027 -0.0627905 1
vertex -0.992115 -0.125333 1
vertex 0 0 1
endloop
endfacet
facet normal -0 0 1
outer loop 
vertex 0 0 1
vertex 0 0 1
vertex -0.998027 -0.0627905 1
endloop
endfacet
facet normal -0.704142 -0.0665608 -0.706932
outer loop 
vertex -0.992115 -0.125333 1
vertex -0.998027 -0.0627905 1
vertex 0 0 0
endloop
endfacet
facet normal -0.704142 -0.0665608 -0.706932
outer loop 
vertex 0 0 0
vertex 0 0 0
vertex -0.992115 -0.125333 1
endloop
endfacet
facet normal 0 0 1
outer loop 
vertex -1 1.19249e-08 1
vertex -0.998027 -0.0627905 1
vertex 0 0 1
endloop
endfacet
facet normal 0 0 1
outer loop 
vertex 0 0 1
vertex 0 0 1
vertex -1 1.19249e-08 1
endloop
endfacet
facet normal -0.706932 -0.0222162 -0.706932
outer loop 
vertex -0.998027 -0.0627905 1
vertex -1 1.19249e-08 1
vertex 0 0 0
endloop
endfacet
facet normal -0.706932 -0.0222162 -0.706932
outer loop 
vertex 0 0 0
vertex 0 0 0
vertex -0.998027 -0.0627905 1
endloop
endfacet
facet normal 0 0 1
outer loop 
vertex -0.998027 0.0627906 1
vertex -1 1.19249e-08 1
vertex 0 0 1
endloop
endfacet
facet normal 0 0 1
outer loop 
vertex 0 0 1
vertex 0 0 1
vertex -0.998027 0.0627906 1
endloop
endfacet
facet normal -0.706932 0.0222162 -0.706932
outer loop 
vertex -1 1.19249e-08 1
vertex -0.998027 0.0627906 1
vertex 0 0 0
endloop
endfacet
facet normal -0.706932 0.0222162 -0.706932
outer loop 
vertex 0 0 0
vertex 0 0 0
vertex -1 1.19249e-08 1
endloop
endfacet
facet normal 0 0 1
outer loop 
vertex -0.992115 0.125333 1
vertex -0.998027 0.0627906 1
vertex 0 0 1
endloop
endfacet
facet normal 0 0 1
outer loop 
vertex 0 0 1
vertex 0 0 1
vertex -0.992115 0.125333 1
endloop
endfacet
facet normal -0.704142 0.0665608 -0.706932
outer loop 
vertex -0.998027 0.0627906 1
vertex -0.992115 0.125333 1
vertex 0 0 0
endloop
endfacet
facet normal -0.704142 0.0665608 -0.706932
outer loop 
vertex 0 0 0
vertex 0 0 0
vertex -0.998027 0.0627906 1
endloop
endfacet
facet normal 0 0 1
outer loop 
vertex -0.982287 0.187381 1
vertex -0.992115 0.125333 1
vertex 0 0 1
endloop
endfacet
facet normal 0 0 1
outer loop 
vertex 0 0 1
vertex 0 0 1
vertex -0.982287 0.187381 1
endloop
endfacet
facet normal -0.698573 0.110644 -0.706932
outer loop 
vertex -0.992115 0.125333 1
vertex -0.982287 0.187381 1
vertex 0 0 0
endloop
endfacet
facet normal -0.698573 0.110644 -0.706932
outer loop 
vertex 0 0 0
vertex 0 0 0
vertex -0.992115 0.125333 1
endloop
endfacet
facet normal 0 0 1
outer loop 
vertex -0.968583 0.24869 1
vertex -0.982287 0.187381 1
vertex 0 0 1
endloop
endfacet
facet normal 0 0 1
outer loop 
vertex 0 0 1
vertex 0 0 1
vertex -0.968583 0.24869 1
endloop
endfacet
facet normal -0.690248 0.154289 -0.706932
outer loop 
vertex -0.982287 0.187381 1
vertex -0.968583 0.24869 1
vertex 0 0 0
endloop
endfacet
facet normal -0.690248 0.154289 -0.706932
outer loop 
vertex 0 0 0
vertex 0 0 0
vertex -0.982287 0.187381 1
endloop
endfacet
facet normal 0 0 1
outer loop 
vertex -0.951056 0.309017 1
vertex -0.968583 0.24869 1
vertex 0 0 1
endloop
endfacet
facet normal 0 0 1
outer loop 
vertex 0 0 1
vertex 0 0 1
vertex -0.951056 0.309017 1
endloop
endfacet
facet normal -0.679198 0.197325 -0.706932
outer loop 
vertex -0.968583 0.24869 1
vertex -0.951056 0.309017 1
vertex 0 0 0
endloop
endfacet
facet normal -0.679198 0.197325 -0.706932
outer loop 
vertex 0 0 0
vertex 0 0 0
vertex -0.968583 0.24869 1
endloop
endfacet
facet normal 0 0 1
outer loop 
vertex -0.929776 0.368125 1
vertex -0.951056 0.309017 1
vertex 0 0 1
endloop
endfacet
facet normal 0 0 1
outer loop 
vertex 0 0 1
vertex 0 0 1
vertex -0.929776 0.368125 1
endloop
endfacet
facet normal -0.665467 0.239583 -0.706932
outer loop 
vertex -0.951056 0.309017 1
vertex -0.929776 0.368125 1
vertex 0 0 0
endloop
endfacet
facet normal -0.665467 0.239583 -0.706932
outer loop 
vertex 0 0 0
vertex 0 0 0
vertex -0.951056 0.309017 1
endloop
endfacet
facet normal 0 0 1
outer loop 
vertex -0.904827 0.425779 1
vertex -0.929776 0.368125 1
vertex 0 0 1
endloop
endfacet
facet normal 0 0 1
outer loop 
vertex 0 0 1
vertex 0 0 1
vertex -0.904827 0.425779 1
endloop
endfacet
facet normal -0.649111 0.280895 -0.706932
outer loop 
vertex -0.929776 0.368125 1
vertex -0.904827 0.425779 1
vertex 0 0 0
endloop
endfacet
facet normal -0.649111 0.280895 -0.706932
outer loop 
vertex 0 0 0
vertex 0 0 0
vertex -0.929776 0.368125 1
endloop
endfacet
facet normal 0 0 1
outer loop 
vertex -0.876307 0.481754 1
vertex -0.904827 0.425779 1
vertex 0 0 1
endloop
endfacet
facet normal 0 0 1
outer loop 
vertex 0 0 1
vertex 0 0 1
vertex -0.876307 0.481754 1
endloop
endfacet
facet normal -0.630192 0.321099 -0.706932
outer loop 
vertex -0.904827 0.425779 1
vertex -0.876307 0.481754 1
vertex 0 0 0
endloop
endfacet
facet normal -0.630192 0.321099 -0.706932
outer loop 
vertex 0 0 0
vertex 0 0 0
vertex -0.904827 0.425779 1
endloop
endfacet
facet normal 0 0 1
outer loop 
vertex -0.844328 0.535827 1
vertex -0.876307 0.481754 1
vertex 0 0 1
endloop
endfacet
facet normal 0 0 1
outer loop 
vertex 0 0 1
vertex 0 0 1
vertex -0.844328 0.535827 1
endloop
endfacet
facet normal -0.608787 0.360035 -0.706932
outer loop 
vertex -0.876307 0.481754 1
vertex -0.844328 0.535827 1
vertex 0 0 0
endloop
endfacet
facet normal -0.608787 0.360035 -0.706932
outer loop 
vertex 0 0 0
vertex 0 0 0
vertex -0.876307 0.481754 1
endloop
endfacet
facet normal 0 0 1
outer loop 
vertex -0.809017 0.587785 1
vertex -0.844328 0.535827 1
vertex 0 0 1
endloop
endfacet
facet normal 0 0 1
outer loop 
vertex 0 0 1
vertex 0 0 1
vertex -0.809017 0.587785 1
endloop
endfacet
facet normal -0.584979 0.397551 -0.706932
outer loop 
vertex -0.844328 0.535827 1
vertex -0.809017 0.587785 1
vertex 0 0 0
endloop
endfacet
facet normal -0.584979 0.397551 -0.706932
outer loop 
vertex 0 0 0
vertex 0 0 0
vertex -0.844328 0.535827 1
endloop
endfacet
facet normal 0 0 1
outer loop 
vertex -0.770513 0.637424 1
vertex -0.809017 0.587785 1
vertex 0 0 1
endloop
endfacet
facet normal 0 0 1
outer loop 
vertex 0 0 1
vertex 0 0 1
vertex -0.770513 0.637424 1
endloop
endfacet
facet normal -0.558862 0.433497 -0.706932
outer loop 
vertex -0.809017 0.587785 1
vertex -0.770513 0.637424 1
vertex 0 0 0
endloop
endfacet
facet normal -0.558862 0.433497 -0.706932
outer loop 
vertex 0 0 0
vertex 0 0 0
vertex -0.809017 0.587785 1
endloop
endfacet
facet normal 0 0 1
outer loop 
vertex -0.728969 0.684547 1
vertex -0.770513 0.637424 1
vertex 0 0 1
endloop
endfacet
facet normal 0 0 1
outer loop 
vertex 0 0 1
vertex 0 0 1
vertex -0.728969 0.684547 1
endloop
endfacet
facet normal -0.53054 0.467733 -0.706932
outer loop 
vertex -0.770513 0.637424 1
vertex -0.728969 0.684547 1
vertex 0 0 0
endloop
endfacet
facet normal -0.53054 0.467733 -0.706932
outer loop 
vertex 0 0 0
vertex 0 0 0
vertex -0.770513 0.637424 1
endloop
endfacet
facet normal 0 0 1
outer loop 
vertex -0.684547 0.728969 1
vertex -0.728969 0.684547 1
vertex 0 0 1
endloop
endfacet
facet normal 0 0 1
outer loop 
vertex 0 0 1
vertex 0 0 1
vertex -0.684547 0.728969 1
endloop
endfacet
facet normal -0.500123 0.500123 -0.706932
outer loop 
vertex -0.728969 0.684547 1
vertex -0.684547 0.728969 1
vertex 0 0 0
endloop
endfacet
facet normal -0.500123 0.500123 -0.706932
outer loop 
vertex 0 0 0
vertex 0 0 0
vertex -0.728969 0.684547 1
endloop
endfacet
facet normal 0 0 1
outer loop 
vertex -0.637424 0.770513 1
vertex -0.684547 0.728969 1
vertex 0 0 1
endloop
endfacet
facet normal 0 0 1
outer loop 
vertex 0 0 1
vertex 0 0 1
vertex -0.637424 0.770513 1
endloop
endfacet
facet normal -0.467733 0.53054 -0.706932
outer loop 
vertex -0.684547 0.728969 1
vertex -0.637424 0.770513 1
vertex 0 0 0
endloop
endfacet
facet normal -0.467733 0.53054 -0.706932
outer loop 
vertex 0 0 0
vertex 0 0 0
vertex -0.684547 0.728969 1
endloop
endfacet
facet normal 0 0 1
outer loop 
vertex -0.587785 0.809017 1
vertex -0.637424 0.770513 1
vertex 0 0 1
endloop
endfacet
facet normal 0 0 1
outer loop 
vertex 0 0 1
vertex 0 0 1
vertex -0.587785 0.809017 1
endloop
endfacet
facet normal -0.433498 0.558862 -0.706932
outer loop 
vertex -0.637424 0.770513 1
vertex -0.587785 0.809017 1
vertex 0 0 0
endloop
endfacet
facet normal -0.433498 0.558862 -0.706932
outer loop 
vertex 0 0 0
vertex 0 0 0
vertex -0.637424 0.770513 1
endloop
endfacet
facet normal 0 0 1
outer loop 
vertex -0.535827 0.844328 1
vertex -0.587785 0.809017 1
vertex 0 0 1
endloop
endfacet
facet normal 0 0 1
outer loop 
vertex 0 0 1
vertex 0 0 1
vertex -0.535827 0.844328 1
endloop
endfacet
facet normal -0.397551 0.584979 -0.706932
outer loop 
vertex -0.587785 0.809017 1
vertex -0.535827 0.844328 1
vertex 0 0 0
endloop
endfacet
facet normal -0.397551 0.584979 -0.706932
outer loop 
vertex 0 0 0
vertex 0 0 0
vertex -0.587785 0.809017 1
endloop
endfacet
facet normal 0 0 1
outer loop 
vertex -0.481754 0.876307 1
vertex -0.535827 0.844328 1
vertex 0 0 1
endloop
endfacet
facet normal 0 0 1
outer loop 
vertex 0 0 1
vertex 0 0 1
vertex -0.481754 0.876307 1
endloop
endfacet
facet normal -0.360036 0.608787 -0.706932
outer loop 
vertex -0.535827 0.844328 1
vertex -0.481754 0.876307 1
vertex 0 0 0
endloop
endfacet
facet normal -0.360036 0.608787 -0.706932
outer loop 
vertex 0 0 0
vertex 0 0 0
vertex -0.535827 0.844328 1
endloop
endfacet
facet normal 0 0 1
outer loop 
vertex -0.425779 0.904827 1
vertex -0.481754 0.876307 1
vertex 0 0 1
endloop
endfacet
facet normal 0 0 1
outer loop 
vertex 0 0 1
vertex 0 0 1
vertex -0.425779 0.904827 1
endloop
endfacet
facet normal -0.321099 0.630192 -0.706932
outer loop 
vertex -0.481754 0.876307 1
vertex -0.425779 0.904827 1
vertex 0 0 0
endloop
endfacet
facet normal -0.321099 0.630192 -0.706932
outer loop 
vertex 0 0 0
vertex 0 0 0
vertex -0.481754 0.876307 1
endloop
endfacet
facet normal 0 0 1
outer loop 
vertex -0.368125 0.929776 1
vertex -0.425779 0.904827 1
vertex 0 0 1
endloop
endfacet
facet normal 0 0 1
outer loop 
vertex 0 0 1
vertex 0 0 1
vertex -0.368125 0.929776 1
endloop
endfacet
facet normal -0.280895 0.649111 -0.706932
outer loop 
vertex -0.425779 0.904827 1
vertex -0.368125 0.929776 1
vertex 0 0 0
endloop
endfacet
facet normal -0.280895 0.649111 -0.706932
outer loop 
vertex 0 0 0
vertex 0 0 0
vertex -0.425779 0.904827 1
endloop
endfacet
facet normal 0 0 1
outer loop 
vertex -0.309017 0.951057 1
vertex -0.368125 0.929776 1
vertex 0 0 1
endloop
endfacet
facet normal 0 0 1
outer loop 
vertex 0 0 1
vertex 0 0 1
vertex -0.309017 0.951057 1
endloop
endfacet
facet normal -0.239583 0.665467 -0.706932
outer loop 
vertex -0.368125 0.929776 1
vertex -0.309017 0.951057 1
vertex 0 0 0
endloop
endfacet
facet normal -0.239583 0.665467 -0.706932
outer loop 
vertex 0 0 0
vertex 0 0 0
vertex -0.368125 0.929776 1
endloop
endfacet
facet normal 0 0 1
outer loop 
vertex -0.24869 0.968583 1
vertex -0.309017 0.951057 1
vertex 0 0 1
endloop
endfacet
facet normal 0 0 1
outer loop 
vertex 0 0 1
vertex 0 0 1
vertex -0.24869 0.968583 1
endloop
endfacet
facet normal -0.197325 0.679198 -0.706932
outer loop 
vertex -0.309017 0.951057 1
vertex -0.24869 0.968583 1
vertex 0 0 0
endloop
endfacet
facet normal -0.197325 0.679198 -0.706932
outer loop 
vertex 0 0 0
vertex 0 0 0
vertex -0.309017 0.951057 1
endloop
endfacet
facet normal 0 0 1
outer loop 
vertex -0.187381 0.982287 1
vertex -0.24869 0.968583 1
vertex 0 0 1
endloop
endfacet
facet normal 0 0 1
outer loop 
vertex 0 0 1
vertex 0 0 1
vertex -0.187381 0.982287 1
endloop
endfacet
facet normal -0.154289 0.690248 -0.706932
outer loop 
vertex -0.24869 0.968583 1
vertex -0.187381 0.982287 1
vertex 0 0 0
endloop
endfacet
facet normal -0.154289 0.690248 -0.706932
outer loop 
vertex 0 0 0
vertex 0 0 0
vertex -0.24869 0.968583 1
endloop
endfacet
facet normal 0 0 1
outer loop 
vertex -0.125333 0.992115 1
vertex -0.187381 0.982287 1
vertex 0 0 1
endloop
endfacet
facet normal 0 0 1
outer loop 
vertex 0 0 1
vertex 0 0 1
vertex -0.125333 0.992115 1
endloop
endfacet
facet normal -0.110643 0.698573 -0.706932
outer loop 
vertex -0.187381 0.982287 1
vertex -0.125333 0.992115 1
vertex 0 0 0
endloop
endfacet
facet normal -0.110643 0.698573 -0.706932
outer loop 
vertex 0 0 0
vertex 0 0 0
vertex -0.187381 0.982287 1
endloop
endfacet
facet normal 0 0 1
outer loop 
vertex -0.0627904 0.998027 1
vertex -0.125333 0.992115 1
vertex 0 0 1
endloop
endfacet
facet normal 0 0 1
outer loop 
vertex 0 0 1
vertex 0 0 1
vertex -0.0627904 0.998027 1
endloop
endfacet
facet normal -0.0665608 0.704142 -0.706932
outer loop 
vertex -0.125333 0.992115 1
vertex -0.0627904 0.998027 1
vertex 0 0 0
endloop
endfacet
facet normal -0.0665608 0.704142 -0.706932
outer loop 
vertex 0 0 0
vertex 0 0 0
vertex -0.125333 0.992115 1
endloop
endfacet
facet normal 0 0 1
outer loop 
vertex 1.74846e-07 1 1
vertex -0.0627904 0.998027 1
vertex 0 0 1
endloop
endfacet
facet normal 0 0 1
outer loop 
vertex 0 0 1
vertex 0 0 1
vertex 1.74846e-07 1 1
endloop
endfacet
facet normal -0.0222162 0.706932 -0.706932
outer loop 
vertex -0.0627904 0.998027 1
vertex 1.74846e-07 1 1
vertex 0 0 0
endloop
endfacet
facet normal -0.0222162 0.706932 -0.706932
outer loop 
vertex 0 0 0
vertex 0 0 0
vertex -0.0627904 0.998027 1
endloop
endfacet
endsolid model
