solid model
facet normal 0 0 1
outer loop 
vertex 0 10 0
vertex 0 0 0
vertex 20 0 0
endloop
endfacet
facet normal 0 0 1
outer loop 
vertex 20 0 0
vertex 20 10 0
vertex 0 10 0
endloop
endfacet
facet normal 0 0 1
outer loop 
vertex 20 20 10
vertex 20 10 10
vertex 40 10 10
endloop
endfacet
facet normal 0 0 1
outer loop 
vertex 40 10 10
vertex 40 20 10
vertex 20 20 10
endloop
endfacet
facet normal 0 -0.707107 0.707107
outer loop 
vertex 20 10 10
vertex 0 0 0
vertex 20 0 0
endloop
endfacet
facet normal 0 -0.707107 0.707107
outer loop 
vertex 20 0 0
vertex 40 10 10
vertex 20 10 10
endloop
endfacet
facet normal 0.447214 0 -0.894427
outer loop 
vertex 40 10 10
vertex 20 0 0
vertex 20 10 0
endloop
endfacet
facet normal 0.447214 0 -0.894427
outer loop 
vertex 20 10 0
vertex 40 20 10
vertex 40 10 10
endloop
endfacet
facet normal 0 0.707107 -0.707107
outer loop 
vertex 40 20 10
vertex 20 10 0
vertex 0 10 0
endloop
endfacet
facet normal 0 0.707107 -0.707107
outer loop 
vertex 0 10 0
vertex 20 20 10
vertex 40 20 10
endloop
endfacet
facet normal -0.447214 0 0.894427
outer loop 
vertex 0 10 0
vertex 0 0 0
vertex 20 10 10
endloop
endfacet
facet normal -0.447214 0 0.894427
outer loop 
vertex 20 10 10
vertex 20 20 10
vertex 0 10 0
endloop
endfacet
endsolid model
